# xmcd CD database file
#
# Track frame offsets:
#	150
#	10087
#	27462
#	42250
#	66087
#	80765
#	91970
#	107670
#	120415
#	132232
#	154950
#	170892
#
# Disc length: 2449 seconds
#
# Revision: 1
# Processed by: cddbd v1.5.1PL0 Copyright (c) Steve Scherf et al.
# Submitted via: CDex 1.51
#
DISCID=9c098f0c
DTITLE=田蔦道生 - Guitar Solo in 長渕剛 2
DYEAR=1999
DGENRE=Instrumental
TTITLE0=Never Give Up
TTITLE1=猿一匹、唄えば侍
TTITLE2=RUN
TTITLE3=ガンジス
TTITLE4=交差点
TTITLE5=マリア
TTITLE6=傷まみれの青春
TTITLE7=明日
TTITLE8=気張いやんせ
TTITLE9=くちづけ
TTITLE10=祈り
TTITLE11=STAY DREAM
EXTD=YEAR: 1999
EXTT0=
EXTT1=
EXTT2=
EXTT3=
EXTT4=
EXTT5=
EXTT6=
EXTT7=
EXTT8=
EXTT9=
EXTT10=
EXTT11=
PLAYORDER=
